<?xml version="1.0" encoding="utf-8"?>
<!-- Generator: Adobe Illustrator 17.0.2, SVG Export Plug-In . SVG Version: 6.00 Build 0)  -->
<!DOCTYPE svg PUBLIC "-//W3C//DTD SVG 1.1//EN" "http://www.w3.org/Graphics/SVG/1.1/DTD/svg11.dtd">
<svg version="1.1" id="Layer_1" xmlns="http://www.w3.org/2000/svg" xmlns:xlink="http://www.w3.org/1999/xlink" x="0px" y="0px"
	 width="50.05px" height="470px" viewBox="10.48 10.63 50.05 470" enable-background="new 10.48 10.63 50.05 470"
	 xml:space="preserve">
<g>
	<path fill="#82E0FF" d="M35.53,250.63c-13.81,0-25,11.19-25,25s11.19,25,25,25c13.8,0,25-11.19,25-25S49.33,250.63,35.53,250.63z
		 M27.79,289.17h-6.07V270.9h6.07V289.17z M24.76,268.41h-0.04c-2.04,0-3.36-1.41-3.36-3.16c0-1.79,1.36-3.16,3.44-3.16
		c2.08,0,3.35,1.37,3.39,3.16C28.19,267,26.88,268.41,24.76,268.41z M49.69,289.17h-6.07v-9.77c0-2.46-0.88-4.14-3.08-4.14
		c-1.67,0-2.67,1.13-3.11,2.23c-0.16,0.39-0.2,0.93-0.2,1.48v10.2h-6.08c0,0,0.08-16.55,0-18.27h6.08v2.59
		c0.8-1.24,2.25-3.02,5.47-3.02c4,0,6.99,2.61,6.99,8.22V289.17z M37.23,273.55v-0.06c-0.02,0.02-0.03,0.04-0.04,0.06H37.23z"/>
</g>
<g>
	<path fill="#82E0FF" d="M35.53,10.63c-13.81,0-25,11.19-25,25s11.19,25,25,25c13.8,0,25-11.19,25-25S49.33,10.63,35.53,10.63z
		 M42.14,26.43h-3.2c-0.63,0-1.27,0.65-1.27,1.14s0,3.26,0,3.26s3.95,0,4.46,0c-0.18,2.5-0.55,4.79-0.55,4.79h-3.94V49.8h-5.87
		V35.62h-2.86v-4.77h2.86c0,0,0-3.19,0-3.9c0-0.71-0.14-5.49,6.02-5.49h4.35V26.43z"/>
</g>
<g>
	<path fill="#82E0FF" d="M35.53,130.63c-13.81,0-25,11.19-25,25s11.19,25,25,25c13.8,0,25-11.19,25-25S49.33,130.63,35.53,130.63z
		 M46.95,156.18c-2.45,9.92-18.87,14.12-26.42,3.83c2.89,2.76,7.93,3,11.12-0.3c-1.87,0.27-3.23-1.56-0.93-2.56
		c-2.07,0.23-3.22-0.87-3.69-1.8c0.48-0.51,1.02-0.75,2.05-0.82c-2.27-0.53-3.1-1.64-3.36-2.98c0.63-0.16,1.42-0.28,1.85-0.23
		c-1.99-1.03-2.68-2.59-2.57-3.77c3.55,1.32,5.81,2.38,7.7,3.39c0.67,0.36,1.42,1.01,2.27,1.83c1.08-2.86,2.41-5.8,4.7-7.25
		c-0.04,0.33-0.22,0.63-0.45,0.89c0.65-0.59,1.49-1,2.34-1.11c-0.1,0.64-1.02,1-1.58,1.21c0.42-0.13,2.67-1.13,2.91-0.56
		c0.29,0.65-1.55,0.95-1.86,1.06c-0.23,0.08-0.47,0.16-0.7,0.26c2.85-0.29,5.57,2.06,6.36,4.98c0.06,0.21,0.12,0.44,0.17,0.68
		c1.04,0.39,2.93-0.02,3.54-0.39c-0.45,1.04-1.59,1.81-3.27,1.95c0.81,0.33,2.34,0.52,3.4,0.34
		C49.86,155.55,48.78,156.2,46.95,156.18z"/>
</g>
<g>
	<path fill="#82E0FF" d="M35.53,370.63c-13.81,0-25,11.2-25,25c0,13.81,11.19,25,25,25c13.8,0,25-11.19,25-25
		C60.53,381.83,49.33,370.63,35.53,370.63z M47.27,404.76H23.94c-0.77,0-1.51-0.4-1.98-1c1.62-1.65,5.13-5.1,8.39-7.46
		c1.9,1.13,3.74,1.99,5.15,2.21l0.07,0.01l0.07-0.01c1.29-0.15,3.06-0.99,4.93-2.1c3.31,2.4,6.85,5.87,8.41,7.45
		c0.01,0.01,0.02,0.02,0.03,0.03C48.62,404.42,47.98,404.76,47.27,404.76z M21.68,402.61V390.1c1.65,1.34,4.7,3.74,7.74,5.64
		C26.48,397.92,23.41,400.88,21.68,402.61z M49.68,402.35c0,0.17-0.14,0.34-0.17,0.51c0,0.03-0.01,0.07-0.02,0.1l-0.1-0.1
		c-1.65-1.66-4.84-4.74-7.9-7.02c3.09-1.94,6.4-4.44,8.07-5.79c0.04-0.03,0.08-0.07,0.12-0.1V402.35z M49.5,388.75
		c-2.11,1.74-10.26,8.25-13.88,8.76c-3.96-0.67-11.78-6.93-13.94-8.71v-0.05c0-0.04-0.12-0.11-0.11-0.16
		c0.08-1.22,1.13-2.17,2.37-2.17h23.33c1.24,0,2.33,0.97,2.41,2.19C49.62,388.65,49.56,388.7,49.5,388.75z"/>
</g>
<g>
	<path fill="#CCCCCC" d="M35.48,430.63c-13.81,0-25,11.2-25,25c0,13.81,11.19,25,25,25s25-11.19,25-25
		C60.48,441.83,49.29,430.63,35.48,430.63z M23.89,446.42h23.33c1.24,0,2.33,0.97,2.41,2.19c-0.05,0.04-0.11,0.09-0.18,0.14
		c-2.11,1.74-10.25,8.25-13.88,8.76c-3.95-0.67-11.77-6.93-13.93-8.71v-0.05c0-0.04-0.13-0.11-0.12-0.16
		C21.6,447.37,22.65,446.42,23.89,446.42z M21.64,450.1c1.64,1.34,4.7,3.74,7.73,5.64c-2.93,2.18-6.01,5.14-7.73,6.87V450.1z
		 M47.22,464.76H23.89c-0.77,0-1.51-0.4-1.98-1c1.62-1.65,5.14-5.1,8.39-7.46c1.9,1.13,3.74,1.99,5.16,2.21l0.07,0.01l0.06-0.01
		c1.29-0.15,3.06-0.99,4.94-2.1c3.3,2.4,6.84,5.87,8.4,7.45c0.01,0.01,0.02,0.02,0.03,0.03C48.58,464.42,47.93,464.76,47.22,464.76z
		 M49.64,462.35c0,0.17-0.14,0.34-0.17,0.51c-0.01,0.03-0.02,0.07-0.03,0.1l-0.1-0.1c-1.65-1.66-4.83-4.74-7.89-7.02
		c3.08-1.94,6.4-4.44,8.06-5.79c0.05-0.03,0.09-0.07,0.13-0.1V462.35z"/>
</g>
<g>
	<path fill="#CCCCCC" d="M35.53,310.63c-13.81,0-25,11.2-25,25c0,13.81,11.19,25,25,25c13.8,0,25-11.19,25-25
		C60.53,321.83,49.33,310.63,35.53,310.63z M27.79,349.17h-6.07V330.9h6.07V349.17z M24.76,328.41h-0.04
		c-2.04,0-3.36-1.41-3.36-3.16c0-1.79,1.36-3.15,3.44-3.15c2.08,0,3.35,1.36,3.39,3.15C28.19,327,26.88,328.41,24.76,328.41z
		 M49.69,349.17h-6.07v-9.77c0-2.46-0.88-4.13-3.08-4.13c-1.67,0-2.67,1.12-3.11,2.22c-0.16,0.39-0.2,0.93-0.2,1.48v10.2h-6.08
		c0,0,0.08-16.55,0-18.27h6.08v2.59c0.8-1.24,2.24-3.02,5.47-3.02c4,0,6.99,2.61,6.99,8.22V349.17z M37.23,333.55v-0.06
		c-0.02,0.02-0.03,0.04-0.04,0.06H37.23z"/>
</g>
<g>
	<path fill="#CCCCCC" d="M35.53,70.63c-13.81,0-25,11.19-25,25s11.19,25,25,25c13.8,0,25-11.19,25-25S49.33,70.63,35.53,70.63z
		 M42.14,86.43h-3.2c-0.63,0-1.27,0.66-1.27,1.14c0,0.49,0,3.26,0,3.26s3.95,0,4.46,0c-0.18,2.51-0.55,4.79-0.55,4.79h-3.94v14.18
		h-5.87V95.62h-2.86v-4.77h2.86c0,0,0-3.18,0-3.9c0-0.71-0.14-5.49,6.02-5.49h4.35V86.43z"/>
</g>
<g>
	<path fill="#CCCCCC" d="M35.53,190.63c-13.81,0-25,11.19-25,25s11.19,25,25,25c13.8,0,25-11.19,25-25S49.33,190.63,35.53,190.63z
		 M46.95,216.18c-2.45,9.92-18.87,14.12-26.42,3.83c2.89,2.76,7.93,3,11.12-0.3c-1.87,0.28-3.23-1.56-0.93-2.55
		c-2.07,0.22-3.22-0.88-3.69-1.81c0.48-0.51,1.02-0.75,2.05-0.82c-2.26-0.53-3.1-1.64-3.36-2.98c0.63-0.15,1.42-0.28,1.85-0.23
		c-1.99-1.03-2.68-2.59-2.57-3.77c3.55,1.32,5.81,2.38,7.7,3.39c0.67,0.36,1.42,1.01,2.27,1.83c1.08-2.85,2.41-5.79,4.7-7.25
		c-0.04,0.33-0.22,0.64-0.45,0.89c0.65-0.59,1.49-0.99,2.34-1.11c-0.1,0.64-1.02,1-1.58,1.21c0.42-0.13,2.67-1.13,2.92-0.56
		c0.28,0.65-1.55,0.95-1.87,1.06c-0.23,0.08-0.47,0.16-0.7,0.26c2.85-0.29,5.57,2.06,6.37,4.98c0.05,0.21,0.11,0.44,0.16,0.68
		c1.04,0.39,2.93-0.01,3.54-0.39c-0.44,1.04-1.59,1.81-3.27,1.95c0.81,0.33,2.34,0.52,3.4,0.34
		C49.86,215.55,48.78,216.2,46.95,216.18z"/>
</g>
</svg>
