<?xml version="1.0" encoding="utf-8"?>
<!-- Generator: Adobe Illustrator 17.0.1, SVG Export Plug-In . SVG Version: 6.00 Build 0)  -->
<!DOCTYPE svg PUBLIC "-//W3C//DTD SVG 1.1//EN" "http://www.w3.org/Graphics/SVG/1.1/DTD/svg11.dtd">
<svg version="1.1" id="Layer_1" xmlns="http://www.w3.org/2000/svg" xmlns:xlink="http://www.w3.org/1999/xlink" x="0px" y="0px"
	 width="211.88px" height="30px" viewBox="0 0 211.88 30" enable-background="new 0 0 211.88 30" xml:space="preserve">
<path fill="#82E0FF" d="M0,0.734h28.532V15c0,7.867-6.4,14.266-14.267,14.266C6.399,29.266,0,22.867,0,15V0.734z M27.065,2.201
	H14.999v5.136h-1.467V2.201H1.467V15c0,3.424,1.304,6.644,3.75,9.049c2.405,2.445,5.625,3.75,9.049,3.75
	c3.424,0,6.644-1.304,9.049-3.75c2.445-2.405,3.75-5.625,3.75-9.049V2.201z"/>
<path fill="#82E0FF" d="M60.775,29.266H32.242V0.734L46.509,8.56V0.734h14.266V29.266z M47.976,2.201v8.804L33.71,3.179v24.619
	h25.597V2.201H47.976z"/>
<path fill="#82E0FF" d="M86.007,29.266H64.852V0.734h21.155V29.266z M66.32,2.201v25.598h18.22V2.201H66.32z"/>
<path fill="#82E0FF" d="M117.964,0.734v28.532h-14.266c-7.867,0-14.266-6.399-14.266-14.266s6.4-14.266,14.266-14.266H117.964z
	 M116.496,27.799V15.734h-5.136v-1.468h5.136V2.201h-12.799c-3.424,0-6.644,1.304-9.049,3.75c-2.445,2.405-3.75,5.625-3.75,9.049
	c0,3.424,1.304,6.644,3.75,9.049c2.405,2.445,5.625,3.75,9.049,3.75H116.496z"/>
<path fill="#82E0FF" d="M150.655,15c0,8.274-6.725,15-15,15s-15-6.726-15-15c0-8.275,6.725-15,15-15S150.655,6.725,150.655,15z
	 M135.655,1.549c-7.419,0-13.451,6.032-13.451,13.451c0,7.418,6.032,13.451,13.451,13.451c7.419,0,13.451-6.032,13.451-13.451
	C149.106,7.581,143.074,1.549,135.655,1.549z"/>
<path fill="#82E0FF" d="M180.29,12.269c0,4.647-2.772,8.682-6.767,10.476l4.32,6.522h-24.456V0.734h15.407
	C175.154,0.734,180.29,5.91,180.29,12.269z M154.855,2.201v25.598h20.299l-3.751-5.666l1.549-0.693
	c1.712-0.815,3.179-2.079,4.239-3.669c1.101-1.63,1.671-3.546,1.671-5.503c0-2.69-1.06-5.217-2.976-7.133
	c-1.875-1.916-4.402-2.935-7.092-2.935H154.855z"/>
<path fill="#82E0FF" d="M211.88,29.266h-28.532V0.734l14.266,7.826V0.734h14.266V29.266z M199.082,2.201v8.804l-14.266-7.826v24.619
	h25.597V2.201H199.082z"/>
<path opacity="0.1" fill="#82E0FF" d="M13.532,0.734V5.87h1.467V0.734h13.533V15c0,7.867-6.4,14.266-14.267,14.266
	C6.399,29.266,0,22.867,0,15V0.734H13.532z"/>
<path opacity="0.1" fill="#82E0FF" d="M0,0.734l24.058,24.633 M24.058,25.367c-2.557,2.416-6.004,3.9-9.792,3.9
	C6.399,29.266,0,22.867,0,15V0.734"/>
</svg>
